<?xml version="1.0" encoding="UTF-8" standalone="no"?>
<!-- Created with Inkscape (http://www.inkscape.org/) -->

<svg
   xmlns:dc="http://purl.org/dc/elements/1.1/"
   xmlns:cc="http://creativecommons.org/ns#"
   xmlns:rdf="http://www.w3.org/1999/02/22-rdf-syntax-ns#"
   xmlns:svg="http://www.w3.org/2000/svg"
   xmlns="http://www.w3.org/2000/svg"
   xmlns:sodipodi="http://sodipodi.sourceforge.net/DTD/sodipodi-0.dtd"
   xmlns:inkscape="http://www.inkscape.org/namespaces/inkscape"
   version="1.0"
   width="900"
   height="900"
   id="svg2848"
   sodipodi:version="0.32"
   inkscape:version="0.91 r13725"
   sodipodi:docname="toolforge-round-cutout.svg">
  <metadata
     id="metadata1970">
    <rdf:RDF>
      <cc:Work
         rdf:about="">
        <dc:format>image/svg+xml</dc:format>
        <dc:type
           rdf:resource="http://purl.org/dc/dcmitype/StillImage" />
        <dc:title></dc:title>
      </cc:Work>
    </rdf:RDF>
  </metadata>
  <sodipodi:namedview
     inkscape:window-height="827"
     inkscape:window-width="1398"
     inkscape:pageshadow="2"
     inkscape:pageopacity="0.0"
     guidetolerance="10.0"
     gridtolerance="10.0"
     objecttolerance="10.0"
     borderopacity="1.0"
     bordercolor="#666666"
     pagecolor="#ffffff"
     id="base"
     height="900px"
     width="900px"
     inkscape:zoom="0.69657286"
     inkscape:cx="450"
     inkscape:cy="451.375"
     inkscape:window-x="179"
     inkscape:window-y="0"
     inkscape:current-layer="svg2848"
     showgrid="false"
     showborder="false"
     inkscape:window-maximized="0" />
  <defs
     id="defs2850" />
  <path
     style="opacity:1;fill:#339966;fill-opacity:1;fill-rule:nonzero;stroke:none;stroke-width:1.00479972;stroke-linecap:round;stroke-linejoin:round;stroke-miterlimit:4;stroke-dasharray:none;stroke-opacity:1"
     d="M 450 147.86914 A 300.03799 300.7558 0 0 0 228.70312 246.06641 L 239.86914 246.06641 L 267.76758 282.66406 L 243.58789 282.66406 L 218.03906 258.14062 A 300.03799 300.7558 0 0 0 149.96289 448.625 A 300.03799 300.7558 0 0 0 450 749.38086 A 300.03799 300.7558 0 0 0 750.03711 448.625 A 300.03799 300.7558 0 0 0 450 147.86914 z M 457.81445 247.69531 L 475.71484 288.0332 L 638.31641 251.93359 L 653.02539 306.34961 L 485.61719 326.84375 L 489.48633 371.61523 L 403.28125 385.41016 L 403.28125 385.41211 L 403.27344 385.41211 L 403.28125 385.41016 L 380.17383 324.66602 L 371.61914 261.49609 L 457.81445 247.69531 z M 323.57227 256.56055 L 357.19922 324.0332 L 340.3125 323.65234 L 379.37109 383.42578 L 358.29297 383.42578 L 290.09375 313.16016 L 306.21484 312.1875 L 267.77539 258.50977 L 323.57227 256.56055 z M 247.92578 297.54883 L 333.49023 380.49805 L 213.21094 298.52148 L 247.92578 297.54883 z M 249.16797 360.25 L 297.52539 383.42578 L 236.60938 383.42578 L 249.16797 360.25 z M 291.05273 402.14648 L 644.02344 402.14648 L 644.02344 429.67969 L 720.33984 429.67969 L 720.33984 459.71289 C 720.33984 459.71289 671.5277 466.76796 644.01562 482.24414 C 577.23671 519.78399 585.19727 586.10938 585.19727 586.10938 L 644.02344 586.10938 L 644.02344 651.18359 L 291.04688 651.18359 L 291.04688 586.10938 L 341.71094 586.10938 C 349.78303 584.32344 360.42188 579.62274 360.42188 567.22656 C 360.42188 560.17064 357.37106 555.47451 353.31641 552.31836 L 291.05273 552.31836 L 291.05273 534.79883 C 291.05273 534.79883 243.26142 524.47988 208.36914 499.75781 C 176.57179 477.23741 179.74805 429.67969 179.74805 429.67969 L 291.05273 429.67969 L 291.05273 402.14648 z "
     id="path5418" />
  <path
     inkscape:connector-curvature="0"
     id="path4005"
     style="opacity:1;fill:#990000;fill-opacity:1;stroke:none;stroke-width:10;stroke-linecap:round;stroke-linejoin:round;stroke-miterlimit:4;stroke-dasharray:none;stroke-opacity:1"
     d="M 450,0 C 296.44174,0 160.77984,77.047236 79.5625,194.5625 l 87,50.25 C 230.1847,157.10508 333.43928,100 450,100 c 116.56072,0 219.8153,57.10508 283.4375,144.8125 l 87,-50.25 C 739.22016,77.047236 603.55826,0 450,0 Z" />
  <path
     inkscape:connector-curvature="0"
     id="path4003"
     style="opacity:1;fill:#006699;fill-opacity:1;stroke:none;stroke-width:10;stroke-linecap:round;stroke-linejoin:round;stroke-miterlimit:4;stroke-dasharray:none;stroke-opacity:1"
     d="M 32.1875,282.75 C 11.448392,334.46664 0,390.90008 0,450 0,681.50364 175.0975,872.35712 400,897.25 l 0,-100.875 C 230.47074,772.0781 100,626.21538 100,450 c 0,-40.89156 7.03061,-80.13628 19.9375,-116.625 l -87.75,-50.625 z" />
  <path
     inkscape:connector-curvature="0"
     id="path3918"
     style="opacity:1;fill:#006699;fill-opacity:1;stroke:none;stroke-width:10;stroke-linecap:round;stroke-linejoin:round;stroke-miterlimit:4;stroke-dasharray:none;stroke-opacity:1"
     d="m 867.8125,282.75 -87.75,50.625 C 792.9694,369.86372 800,409.10844 800,450 800,626.21536 669.52928,772.0781 500,796.375 l 0,100.875 C 724.90248,872.35712 899.99998,681.50364 900,450 900,390.90008 888.5516,334.46664 867.8125,282.75 Z" />
</svg>
