<svg xmlns="http://www.w3.org/2000/svg" width="166.277" height="2in" viewBox="0 0 155.88478 180.00001">
  <path d="M155.69 44.887l.195.338V45l-.196-.113zM77.594 179.799l.347.201.348-.201h-.695z"/>
  <path d="M77.941 0L4.481 42.414l19.18 11.072 54.28-31.341 54.04 31.199 19.177-11.073L77.941 0z" fill="#900"/>
  <path d="M155.885 49.771l-19.18 11.073v63.082l-54.578 31.512v22.146L155.885 135V49.771zM0 50.055V135l73.268 42.3v-22.146L19.18 123.926V61.129L0 50.055z" fill="#069"/>
  <path d="M77.941 31.004L38.984 53.496h1.319l5.035 6.602h-4.363l-4.61-4.424a54.135 54.265 0 0 0-.017.023l-.428-.431-9.07 5.236v12.535h.04a54.135 54.265 0 0 0-.04.11v46.351l51.091 29.498 51.094-29.498V60.502L77.941 31.004zm1.686 22.785l3.23 7.277 29.336-6.511 2.655 9.818-30.205 3.697.699 8.078-15.555 2.489-4.168-10.96-1.545-11.398 15.553-2.49zm-24.22 1.6l6.066 12.173-3.047-.068 7.047 10.785H61.67L49.365 65.602l2.908-.176-6.935-9.686 10.068-.351zm-13.65 7.396L57.196 77.75l-21.7-14.791 6.263-.174zm.223 11.313l8.727 4.181H39.715l2.265-4.181zm7.56 7.558h63.685v4.969h13.77v5.418s-8.808 1.272-13.772 4.064c-12.05 6.774-10.614 18.74-10.614 18.74h10.616v11.743H49.537v-11.742h9.14c1.457-.323 3.378-1.17 3.378-3.407 0-1.273-.552-2.12-1.284-2.69H49.54v-3.161s-8.624-1.862-14.92-6.322c-5.737-4.064-5.164-12.643-5.164-12.643H49.54v-4.969z" fill="#396"/>
</svg>
