<?xml version="1.0" encoding="UTF-8" standalone="no"?>
<!-- Created with Inkscape (http://www.inkscape.org/) -->

<svg
   xmlns:dc="http://purl.org/dc/elements/1.1/"
   xmlns:cc="http://creativecommons.org/ns#"
   xmlns:rdf="http://www.w3.org/1999/02/22-rdf-syntax-ns#"
   xmlns:svg="http://www.w3.org/2000/svg"
   xmlns="http://www.w3.org/2000/svg"
   xmlns:sodipodi="http://sodipodi.sourceforge.net/DTD/sodipodi-0.dtd"
   xmlns:inkscape="http://www.inkscape.org/namespaces/inkscape"
   width="1.7321in"
   height="2in"
   viewBox="0 0 156 180"
   id="svg7307"
   version="1.1"
   inkscape:version="0.91 r13725"
   sodipodi:docname="toolforge-hex-cutout.svg"
   inkscape:export-xdpi="29.870001"
   inkscape:export-ydpi="29.870001">
  <defs
     id="defs7309" />
  <sodipodi:namedview
     id="base"
     pagecolor="#ffffff"
     bordercolor="#666666"
     borderopacity="1.0"
     inkscape:pageopacity="0.0"
     inkscape:pageshadow="2"
     inkscape:zoom="3.4832477"
     inkscape:cx="77.9445"
     inkscape:cy="90"
     inkscape:document-units="px"
     inkscape:current-layer="layer1"
     showgrid="false"
     units="in"
     fit-margin-top="0"
     fit-margin-bottom="0"
     fit-margin-right="0"
     fit-margin-left="0"
     showguides="true"
     inkscape:guide-bbox="true"
     inkscape:window-width="1152"
     inkscape:window-height="923"
     inkscape:window-x="1"
     inkscape:window-y="0"
     inkscape:window-maximized="0"
     showborder="false" />
  <metadata
     id="metadata7312">
    <rdf:RDF>
      <cc:Work
         rdf:about="">
        <dc:format>image/svg+xml</dc:format>
        <dc:type
           rdf:resource="http://purl.org/dc/dcmitype/StillImage" />
        <dc:title />
      </cc:Work>
    </rdf:RDF>
  </metadata>
  <g
     inkscape:label="Artwork"
     inkscape:groupmode="layer"
     id="layer1"
     transform="translate(-125.60887,297.92689)"
     style="display:inline">
    <path
       style="display:inline;opacity:1;fill:#990000;fill-opacity:1;fill-rule:nonzero;stroke:none;stroke-width:1;stroke-linecap:round;stroke-linejoin:round;stroke-miterlimit:4;stroke-dasharray:none;stroke-opacity:1"
       d="m 203.55028,-297.92689 -73.46094,42.41406 19.17969,11.07227 54.28125,-31.3418 54.03906,31.19922 19.17774,-11.07227 -73.2168,-42.27148 z"
       id="path7418"
       inkscape:connector-curvature="0" />
    <path
       style="display:inline;opacity:1;fill:#006699;fill-opacity:1;fill-rule:nonzero;stroke:none;stroke-width:1;stroke-linecap:round;stroke-linejoin:round;stroke-miterlimit:4;stroke-dasharray:none;stroke-opacity:1"
       d="m 281.49364,-248.15541 -19.17969,11.07227 0,63.08203 -54.57812,31.51172 0,22.14648 73.75781,-42.58398 0,-85.22852 z"
       id="path7414"
       inkscape:connector-curvature="0" />
    <path
       style="display:inline;opacity:1;fill:#006699;fill-opacity:1;fill-rule:nonzero;stroke:none;stroke-width:1;stroke-linecap:round;stroke-linejoin:round;stroke-miterlimit:4;stroke-dasharray:none;stroke-opacity:1"
       d="m 125.60887,-247.87221 0,84.94532 73.26758,42.30078 0,-22.14649 -54.08789,-31.22851 0,-62.79688 -19.17969,-11.07422 z"
       id="path7412"
       inkscape:connector-curvature="0" />
    <path
       style="display:inline;opacity:1;fill:#339966;fill-opacity:1;fill-rule:nonzero;stroke:none;stroke-width:1;stroke-linecap:round;stroke-linejoin:round;stroke-miterlimit:4;stroke-dasharray:none;stroke-opacity:1"
       d="m 203.55028,-266.92299 -38.95703,22.49219 1.31836,0 5.03515,6.60156 -4.36328,0 -4.60937,-4.42382 a 54.135104,54.264617 0 0 0 -0.0176,0.0234 l -0.42774,-0.43164 -9.07031,5.23633 0,12.53516 0.041,0 a 54.135104,54.264617 0 0 0 -0.041,0.10937 l 0,46.35156 51.0918,29.49805 51.09375,-29.49805 0,-58.99609 -51.09375,-29.49805 z m 1.68555,22.78516 3.23046,7.27734 29.33594,-6.51172 2.6543,9.81836 -30.20508,3.69727 0.69922,8.07813 -15.55469,2.48828 -4.16797,-10.95899 -1.54492,-11.39844 15.55274,-2.49023 z m -24.22071,1.59961 6.06641,12.17383 -3.04688,-0.0684 7.04688,10.78515 -3.80274,0 -12.30468,-12.67773 2.9082,-0.17578 -6.93555,-9.68555 10.06836,-0.35156 z m -13.64843,7.39648 15.4375,14.96485 -21.70118,-14.79102 6.26368,-0.17383 z m 0.22265,11.3125 8.72656,4.18164 -10.99218,0 2.26562,-4.18164 z m 7.5586,7.5586 63.68554,0 0,4.96875 13.76953,0 0,5.41797 c 0,0 -8.80755,1.27213 -13.77148,4.06445 -12.04875,6.77323 -10.61328,18.74023 -10.61328,18.74023 l 10.61523,0 0,11.74219 -63.6875,0 0,-11.74219 9.14063,0 c 1.45643,-0.32223 3.37695,-1.16964 3.37695,-3.40625 0,-1.27308 -0.55163,-2.11999 -1.2832,-2.68945 l -11.23242,0 0,-3.16211 c 0,0 -8.6244,-1.86172 -14.91993,-6.32226 -5.73711,-4.0633 -5.16406,-12.64258 -5.16406,-12.64258 l 20.08399,0 0,-4.96875 z"
       id="path7372"
       inkscape:connector-curvature="0" />
  </g>
</svg>
