<svg xmlns="http://www.w3.org/2000/svg" version="1" width="900" height="900">
  <path d="M292.08 402.234v27.626H180.415s-3.187 47.7 28.711 70.292c35.003 24.8 82.954 35.151 82.954 35.151v17.581h62.451c4.068 3.166 7.135 7.875 7.135 14.953 0 12.436-10.678 17.147-18.776 18.939H292.07v65.285h354.097v-65.285h-59.02s-7.98-66.536 59.01-104.194c27.598-15.525 76.568-22.598 76.568-22.598V429.86h-76.558v-27.626H292.08zm-42.025-42.025l-12.597 23.25h61.116l-48.52-23.25zm-1.238-62.896l-34.826.966 120.657 82.237-85.831-83.203zm75.884-41.124l-55.98 1.954 38.562 53.851-16.17.978 68.413 70.487h21.143l-39.18-59.965 16.94.38-33.728-67.685zm134.665-8.894l-86.472 13.846 8.59 63.374 23.173 60.931 86.483-13.835-3.887-44.913L655.19 306.14l-14.757-54.59-163.106 36.206-17.96-40.462zm-225.97-1.629l-17.037 9.839 2.378 2.4a300.987 301.707 0 0 1 .098-.13l25.627 24.596h24.26l-27.995-36.705h-7.33zm-67.468 108.647v.608a300.987 301.707 0 0 1 .228-.608h-.228z" fill="#396"/>
  <path d="M450 0C296.442 0 160.78 77.047 79.562 194.563l87 50.25C230.185 157.105 333.44 100 450 100c116.56 0 219.815 57.105 283.438 144.813l87-50.25C739.22 77.046 603.558 0 450 0z" fill="#900"/>
  <path d="M32.188 282.75C11.448 334.467 0 390.9 0 450c0 231.504 175.097 422.357 400 447.25V796.375C230.47 772.078 100 626.215 100 450c0-40.892 7.03-80.136 19.938-116.625l-87.75-50.625zM867.813 282.75l-87.75 50.625C792.968 369.864 800 409.108 800 450c0 176.215-130.47 322.078-300 346.375V897.25C724.902 872.357 900 681.504 900 450c0-59.1-11.448-115.533-32.188-167.25z" fill="#069"/>
  <path d="M882.267 197.799l1.086 1.879v-1.25l-1.086-.63zM448.062 947.9l1.933 1.118 1.933-1.119h-3.866z"/>
</svg>
