<svg xmlns="http://www.w3.org/2000/svg" version="1" width="900" height="900">
  <path d="M450 147.87a300.038 300.756 0 0 0-221.297 98.196h11.166l27.899 36.598h-24.18l-25.549-24.523a300.038 300.756 0 0 0-68.076 190.484A300.038 300.756 0 0 0 450 749.381a300.038 300.756 0 0 0 300.037-300.756A300.038 300.756 0 0 0 450 147.869zm7.814 99.825l17.9 40.338 162.602-36.1 14.71 54.417-167.409 20.494 3.87 44.771-86.206 13.795v.002h-.008l.008-.002-23.107-60.744-8.555-63.17 86.195-13.8zm-134.242 8.866l33.627 67.472-16.887-.38 39.06 59.773h-21.079l-68.2-70.266 16.122-.973-38.44-53.677 55.797-1.95zm-75.646 40.988l85.564 82.949-120.28-81.977 34.716-.972zm1.242 62.701l48.357 23.176H236.61l12.559-23.176zm41.885 41.896h352.97v27.534h76.317v30.033s-48.812 7.055-76.324 22.531c-66.78 37.54-58.819 103.865-58.819 103.865h58.826v65.075H291.047v-65.075h50.664c8.072-1.786 18.71-6.486 18.71-18.882 0-7.056-3.05-11.752-7.105-14.909h-62.263v-17.52s-47.792-10.318-82.684-35.04c-31.797-22.52-28.62-70.078-28.62-70.078h111.304v-27.534z" fill="#396"/>
  <path d="M450 0C296.442 0 160.78 77.047 79.562 194.563l87 50.25C230.185 157.105 333.44 100 450 100c116.56 0 219.815 57.105 283.438 144.813l87-50.25C739.22 77.046 603.558 0 450 0z" fill="#900"/>
  <path d="M32.188 282.75C11.448 334.467 0 390.9 0 450c0 231.504 175.097 422.357 400 447.25V796.375C230.47 772.078 100 626.215 100 450c0-40.892 7.03-80.136 19.938-116.625l-87.75-50.625zM867.813 282.75l-87.75 50.625C792.968 369.864 800 409.108 800 450c0 176.215-130.47 322.078-300 346.375V897.25C724.902 872.357 900 681.504 900 450c0-59.1-11.448-115.533-32.188-167.25z" fill="#069"/>
</svg>
