<?xml version="1.0" encoding="UTF-8" standalone="no"?>
<svg
   xmlns:dc="http://purl.org/dc/elements/1.1/"
   xmlns:rdf="http://www.w3.org/1999/02/22-rdf-syntax-ns#"
   xmlns:svg="http://www.w3.org/2000/svg"
   xmlns="http://www.w3.org/2000/svg"
   xmlns:sodipodi="http://sodipodi.sourceforge.net/DTD/sodipodi-0.dtd"
   xmlns:inkscape="http://www.inkscape.org/namespaces/inkscape"
   viewBox="0 0 72.674681 69.184999"
   width="72.674843"
   height="69.184998"
   id="svg5301"
   version="1.1"
   inkscape:version="0.91 r13725"
   sodipodi:docname="toolforge-rgb-anvil.svg"
   inkscape:export-xdpi="90"
   inkscape:export-ydpi="90">
  <defs
     id="defs5307" />
  <sodipodi:namedview
     pagecolor="#ffffff"
     bordercolor="#666666"
     borderopacity="1"
     objecttolerance="10"
     gridtolerance="10"
     guidetolerance="10"
     inkscape:pageopacity="0"
     inkscape:pageshadow="2"
     inkscape:window-width="1200"
     inkscape:window-height="904"
     id="namedview5305"
     showgrid="false"
     showborder="false"
     inkscape:zoom="9.6204925"
     inkscape:cx="36.233819"
     inkscape:cy="34.592511"
     inkscape:window-x="10"
     inkscape:window-y="0"
     inkscape:window-maximized="0"
     inkscape:current-layer="svg5301"
     fit-margin-top="0"
     fit-margin-left="0"
     fit-margin-right="0"
     fit-margin-bottom="0" />
  <g
     id="g5919"
     inkscape:export-xdpi="222.91"
     inkscape:export-ydpi="222.91">
    <path
       inkscape:connector-curvature="0"
       style="fill:#339966;fill-opacity:1"
       id="path5861"
       d="m 62.416763,31.357 0,-4.702 -47.444,0 0,4.702 -14.96100049,0 c 0,0 -0.427,8.122 3.84699999,11.968 4.69,4.222 11.1140005,5.984 11.1140005,5.984 l 0,2.992 8.369,0 c 0.545,0.539 0.955,1.341 0.955,2.546 0,2.117 -1.43,2.92 -2.515,3.225 l -6.81,0 0,11.113 47.445,0 0,-11.113 -7.907,0 c 0,0 -1.07,-11.327 7.906,-17.738 3.698,-2.643 10.259,-3.848 10.259,-3.848 l 0,-5.129 -10.26,0 z" />
    <path
       inkscape:connector-curvature="0"
       style="fill:#006699;fill-opacity:1"
       id="path5859"
       d="m 30.056763,23.797 11.588,-2.356 -0.52,-7.646 22.502,-3.5 -1.977,-9.293 -21.856,6.165 -2.406,-6.889 -11.586,2.357 1.15,10.788 3.106,10.374 z" />
    <g
       transform="translate(-2.3749439e-4,0)"
       style="fill:#990000;fill-opacity:1"
       id="g5863">
      <path
         inkscape:connector-curvature="0"
         style="fill:#990000;fill-opacity:1"
         d="m 14.844,11.458 9.167,12 2.833,0 -5.25,-10.208 2.27,0.065 -4.52,-11.523 -7.5,0.333 5.167,9.167 -2.167,0.166 z"
         id="path5857" />
      <path
         inkscape:connector-curvature="0"
         style="fill:#990000;fill-opacity:1"
         d="M 9.176,8.792 4.51,8.958 20.677,22.958 9.176,8.792 Z"
         id="path5855" />
      <path
         inkscape:connector-curvature="0"
         style="fill:#990000;fill-opacity:1"
         d="M 11.843,6.25 8.093,0 3.468,0 l 5.125,6.25 3.25,0 z"
         id="path5853" />
      <path
         inkscape:connector-curvature="0"
         style="fill:#990000;fill-opacity:1"
         d="m 15.843,23.458 -6.5,-3.958 -1.688,3.958 8.188,0 z"
         id="path5303" />
    </g>
  </g>
</svg>
