<?xml version="1.0" encoding="UTF-8" standalone="no"?>
<svg
   xmlns:dc="http://purl.org/dc/elements/1.1/"
   xmlns:cc="http://creativecommons.org/ns#"
   xmlns:rdf="http://www.w3.org/1999/02/22-rdf-syntax-ns#"
   xmlns:svg="http://www.w3.org/2000/svg"
   xmlns="http://www.w3.org/2000/svg"
   xmlns:sodipodi="http://sodipodi.sourceforge.net/DTD/sodipodi-0.dtd"
   xmlns:inkscape="http://www.inkscape.org/namespaces/inkscape"
   viewBox="0 0 179.99961 134.8663"
   width="2in"
   height="1.4985144in"
   id="svg5301"
   version="1.1"
   inkscape:version="0.91 r13725"
   sodipodi:docname="toolforge-rgb-anvil.svg"
   inkscape:export-xdpi="90"
   inkscape:export-ydpi="90">
  <metadata
     id="metadata13">
    <rdf:RDF>
      <cc:Work
         rdf:about="">
        <dc:format>image/svg+xml</dc:format>
        <dc:type
           rdf:resource="http://purl.org/dc/dcmitype/StillImage" />
        <dc:title></dc:title>
      </cc:Work>
    </rdf:RDF>
  </metadata>
  <defs
     id="defs5307" />
  <sodipodi:namedview
     pagecolor="#ffffff"
     bordercolor="#666666"
     borderopacity="1"
     objecttolerance="10"
     gridtolerance="10"
     guidetolerance="10"
     inkscape:pageopacity="0"
     inkscape:pageshadow="2"
     inkscape:window-width="1200"
     inkscape:window-height="904"
     id="namedview5305"
     showgrid="false"
     showborder="false"
     inkscape:zoom="3.2833333"
     inkscape:cx="90"
     inkscape:cy="67.433149"
     inkscape:window-x="10"
     inkscape:window-y="0"
     inkscape:window-maximized="0"
     inkscape:current-layer="svg5301"
     fit-margin-top="0"
     fit-margin-left="0"
     fit-margin-right="0"
     fit-margin-bottom="0"
     inkscape:document-units="in"
     units="in" />
  <g
     id="g4229"
     transform="matrix(1.8464277,0,0,1.8464277,22.399452,1.2524088)">
    <path
       id="path4899"
       d="m 7.9542322,27.461837 0,4.965214 -20.0697002,0 c 0,0 -0.572642,8.573176 5.1603858,12.633585 6.2910507,4.457366 14.9093144,6.317762 14.9093144,6.317762 l 0,3.15986 11.2244278,0 c 0.73105,0.569055 1.282287,1.415362 1.282287,2.687536 0,2.235019 -1.919153,3.081826 -3.374547,3.403827 l -9.1341264,0 0,11.733835 63.6421864,0 0,-11.733835 -10.607677,0 c 0,0 -1.434449,-11.958486 10.605728,-18.726896 4.960399,-2.790334 13.761682,-4.061559 13.761682,-4.061559 l 0,-5.414115 -13.759733,0 0,-4.965214 -63.6402278,0 z"
       style="display:inline;opacity:1;fill:#339966;fill-opacity:1;fill-rule:nonzero;stroke:none;stroke-width:1;stroke-linecap:round;stroke-linejoin:round;stroke-miterlimit:4;stroke-dasharray:none;stroke-opacity:1"
       inkscape:connector-curvature="0" />
    <path
       id="path4891"
       d="M 38.020715,-0.38552593 22.47904,2.1029323 24.022861,13.493262 28.187866,24.444455 43.731489,21.957945 43.032766,13.885563 73.216355,10.190924 70.563944,0.37954933 41.248876,6.8866362 38.020715,-0.38552593 Z"
       style="display:inline;opacity:1;fill:#006699;fill-opacity:1;fill-rule:nonzero;stroke:none;stroke-width:1;stroke-linecap:round;stroke-linejoin:round;stroke-miterlimit:4;stroke-dasharray:none;stroke-opacity:1"
       inkscape:connector-curvature="0" />
    <path
       d="m -2.5929481,-0.67828749 -3.0622796,1.76827099 0.4274356,0.4313329 a 54.096587,54.226008 0 0 1 0.017588,-0.023383 l 4.60609044,4.4206725 4.36017556,0 -5.0315675,-6.59686301 -1.317422,0 z M 13.817238,1.2129459 3.7560414,1.5642558 l 6.9306156,9.6786592 -2.9061311,0.175654 12.2959251,12.66871 3.800034,0 -7.041866,-10.777476 3.044712,0.06835 L 13.817238,1.2129859 Z M 0.1785186,8.6041633 -6.0807048,8.7778697 15.605035,23.558366 0.1785186,8.6041633 Z m 0.22249158,11.3044517 -2.26400798,4.178664 10.984359,0 -8.72035102,-4.178664 z"
       style="display:inline;opacity:1;fill:#990000;fill-opacity:1;fill-rule:nonzero;stroke:none;stroke-width:1;stroke-linecap:round;stroke-linejoin:round;stroke-miterlimit:4;stroke-dasharray:none;stroke-opacity:1"
       id="path4889"
       inkscape:connector-curvature="0" />
  </g>
</svg>
