<?xml version="1.0" encoding="UTF-8" standalone="no"?>
<!-- Created with Inkscape (http://www.inkscape.org/) -->

<svg
   xmlns:dc="http://purl.org/dc/elements/1.1/"
   xmlns:cc="http://creativecommons.org/ns#"
   xmlns:rdf="http://www.w3.org/1999/02/22-rdf-syntax-ns#"
   xmlns:svg="http://www.w3.org/2000/svg"
   xmlns="http://www.w3.org/2000/svg"
   xmlns:sodipodi="http://sodipodi.sourceforge.net/DTD/sodipodi-0.dtd"
   xmlns:inkscape="http://www.inkscape.org/namespaces/inkscape"
   width="1.7321in"
   height="2in"
   viewBox="0 0 156 180"
   id="svg7307"
   version="1.1"
   inkscape:version="0.91 r13725"
   sodipodi:docname="toolforge-sparks-hex.svg"
   inkscape:export-xdpi="91.289391"
   inkscape:export-ydpi="91.289391">
  <defs
     id="defs7309" />
  <sodipodi:namedview
     id="base"
     pagecolor="#ffffff"
     bordercolor="#666666"
     borderopacity="1.0"
     inkscape:pageopacity="0.0"
     inkscape:pageshadow="2"
     inkscape:zoom="4.0055556"
     inkscape:cx="77.9445"
     inkscape:cy="90"
     inkscape:document-units="in"
     inkscape:current-layer="layer1"
     showgrid="false"
     units="in"
     fit-margin-top="0"
     fit-margin-bottom="0"
     fit-margin-right="0"
     fit-margin-left="0"
     showguides="true"
     inkscape:guide-bbox="true"
     inkscape:window-width="1152"
     inkscape:window-height="923"
     inkscape:window-x="330"
     inkscape:window-y="12"
     inkscape:window-maximized="0"
     showborder="false" />
  <metadata
     id="metadata7312">
    <rdf:RDF>
      <cc:Work
         rdf:about="">
        <dc:format>image/svg+xml</dc:format>
        <dc:type
           rdf:resource="http://purl.org/dc/dcmitype/StillImage" />
        <dc:title></dc:title>
      </cc:Work>
    </rdf:RDF>
  </metadata>
  <g
     inkscape:label="Artwork"
     inkscape:groupmode="layer"
     id="layer1"
     transform="translate(-125.60887,297.92689)"
     style="display:inline">
    <path
       style="opacity:1;fill:#000000;fill-opacity:1;fill-rule:nonzero;stroke:none;stroke-width:2.55299997;stroke-linecap:round;stroke-linejoin:round;stroke-miterlimit:4;stroke-dasharray:none;stroke-opacity:1"
       d="M 77.945312,0 4.8730469,42.1875 14.615234,47.8125 77.945312,11.25 141.27344,47.8125 151.01562,42.1875 77.945312,0 Z m -77.94335887,50.625 0,84.375 73.07031287,42.1875 0,-11.25 -63.3281254,-36.5625 0,-73.125 -9.74218747,-5.625 z m 155.88476687,0 -9.74219,5.625 0,73.125 -63.328124,36.5625 0,11.25 L 155.88672,135 l 0,-84.375 z"
       transform="matrix(1.000712,0,0,1.000712,125.60887,-297.99097)"
       id="path4299"
       inkscape:connector-curvature="0" />
    <g
       id="g4278"
       transform="matrix(1.2924994,0,0,1.2924994,-59.909977,59.201608)">
      <path
         id="path4899"
         d="m 175.20555,-215.06263 0,4.96875 -20.08399,0 c 0,0 -0.57305,8.57928 5.16406,12.64258 6.29553,4.46054 14.91993,6.32226 14.91993,6.32226 l 0,3.16211 11.23242,0 c 0.73157,0.56946 1.2832,1.41637 1.2832,2.68945 0,2.23661 -1.92052,3.08402 -3.37695,3.40625 l -9.14063,0 0,11.74219 63.6875,0 0,-11.74219 -10.61523,0 c 0,0 -1.43547,-11.967 10.61328,-18.74023 4.96393,-2.79232 13.77148,-4.06445 13.77148,-4.06445 l 0,-5.41797 -13.76953,0 0,-4.96875 -63.68554,0 z"
         style="display:inline;opacity:1;fill:#000000;fill-opacity:1;fill-rule:nonzero;stroke:none;stroke-width:1;stroke-linecap:round;stroke-linejoin:round;stroke-miterlimit:4;stroke-dasharray:none;stroke-opacity:1"
         inkscape:connector-curvature="0" />
      <path
         id="path4891"
         d="m 205.29344,-242.92982 -15.55274,2.49023 1.54492,11.39844 4.16797,10.95899 15.55469,-2.48828 -0.69922,-8.07813 30.20508,-3.69727 -2.6543,-9.81836 -29.33594,6.51172 -3.23046,-7.27734 z"
         style="display:inline;opacity:1;fill:#000000;fill-opacity:1;fill-rule:nonzero;stroke:none;stroke-width:1;stroke-linecap:round;stroke-linejoin:round;stroke-miterlimit:4;stroke-dasharray:none;stroke-opacity:1"
         inkscape:connector-curvature="0" />
      <path
         id="path4218"
         d="m 164.65086,-243.22279 -3.06446,1.76953 0.42774,0.43164 a 54.135104,54.264617 0 0 1 0.0176,-0.0234 l 4.60937,4.42382 4.36328,0 -5.03515,-6.60156 -1.31836,0 z"
         style="display:inline;opacity:1;fill:#0063bf;fill-opacity:1;fill-rule:nonzero;stroke:none;stroke-width:1;stroke-linecap:round;stroke-linejoin:round;stroke-miterlimit:4;stroke-dasharray:none;stroke-opacity:1"
         inkscape:connector-curvature="0" />
      <path
         id="path4216"
         d="m 181.07273,-241.33021 -10.06836,0.35156 6.93555,9.68555 -2.9082,0.17578 12.30468,12.67773 3.80274,0 -7.04688,-10.78515 3.04688,0.0684 -6.06641,-12.17383 z"
         style="display:inline;opacity:1;fill:#990000;fill-opacity:1;fill-rule:nonzero;stroke:none;stroke-width:1;stroke-linecap:round;stroke-linejoin:round;stroke-miterlimit:4;stroke-dasharray:none;stroke-opacity:1"
         inkscape:connector-curvature="0" />
      <path
         id="path4214"
         d="m 167.4243,-233.93373 -6.26368,0.17383 21.70118,14.79102 -15.4375,-14.96485 z"
         style="display:inline;opacity:1;fill:#339966;fill-opacity:1;fill-rule:nonzero;stroke:none;stroke-width:1;stroke-linecap:round;stroke-linejoin:round;stroke-miterlimit:4;stroke-dasharray:none;stroke-opacity:1"
         inkscape:connector-curvature="0" />
      <path
         id="path4889"
         d="m 167.64695,-222.62123 -2.26562,4.18164 10.99218,0 -8.72656,-4.18164 z"
         style="display:inline;opacity:1;fill:#0063bf;fill-opacity:1;fill-rule:nonzero;stroke:none;stroke-width:1;stroke-linecap:round;stroke-linejoin:round;stroke-miterlimit:4;stroke-dasharray:none;stroke-opacity:1"
         inkscape:connector-curvature="0" />
    </g>
  </g>
</svg>
