<svg xmlns="http://www.w3.org/2000/svg" width="166.282" height="2in" viewBox="0 0 156 180"><path d="M155.69 44.887l.195.338V45l-.196-.113zM77.594 179.799l.347.201.348-.201h-.695z"/><path d="M77.941 0L4.481 42.414l19.18 11.072 54.28-31.341 54.04 31.199 19.177-11.073L77.941 0z" fill="#900"/><path d="M155.885 49.771l-19.18 11.073v63.082l-54.578 31.512v22.146L155.885 135V49.771zM0 50.055V135l73.268 42.3v-22.146L19.18 123.926V61.129L0 50.055z" fill="#069"/><path d="M49.54 81.656v4.969H29.454s-.573 8.58 5.164 12.643c6.296 4.46 14.92 6.322 14.92 6.322v3.162h11.232c.732.57 1.284 1.416 1.284 2.69 0 2.236-1.92 3.083-3.377 3.406h-9.14v11.742h63.687v-11.742h-10.616s-1.435-11.967 10.614-18.74c4.964-2.793 13.771-4.065 13.771-4.065v-5.418h-13.77v-4.969H49.54z" fill="#396"/><path d="M79.627 53.79l-15.553 2.49 1.545 11.398 4.168 10.959 15.555-2.489-.7-8.078 30.206-3.697-2.655-9.818-29.336 6.511-3.23-7.277z" fill="#069"/><path d="M38.984 53.496l-3.064 1.77.428.431a54.135 54.265 0 0 1 .017-.023l4.61 4.424h4.363l-5.035-6.602h-1.319zm16.422 1.893l-10.068.351 6.935 9.686-2.908.176L61.67 78.279h3.803l-7.047-10.785 3.047.069-6.067-12.174zm-13.648 7.396l-6.264.174L57.195 77.75 41.758 62.785zm.222 11.313l-2.265 4.181h10.992l-8.727-4.181z" fill="#900"/><path d="M26.85 73.037v.11a54.135 54.265 0 0 1 .04-.11h-.04z" fill="#396"/></svg>