<?xml version="1.0" encoding="UTF-8" standalone="no"?>
<!-- Created with Inkscape (http://www.inkscape.org/) -->

<svg
   xmlns:dc="http://purl.org/dc/elements/1.1/"
   xmlns:cc="http://creativecommons.org/ns#"
   xmlns:rdf="http://www.w3.org/1999/02/22-rdf-syntax-ns#"
   xmlns:svg="http://www.w3.org/2000/svg"
   xmlns="http://www.w3.org/2000/svg"
   xmlns:sodipodi="http://sodipodi.sourceforge.net/DTD/sodipodi-0.dtd"
   xmlns:inkscape="http://www.inkscape.org/namespaces/inkscape"
   width="1.732053in"
   height="1.9731554in"
   id="svg7307"
   version="1.1"
   inkscape:version="0.91 r13725"
   sodipodi:docname="toolforge-anvil-hex.svg"
   inkscape:export-xdpi="91.289391"
   inkscape:export-ydpi="91.289391">
  <defs
     id="defs7309" />
  <sodipodi:namedview
     id="base"
     pagecolor="#ffffff"
     bordercolor="#666666"
     borderopacity="1.0"
     inkscape:pageopacity="0.0"
     inkscape:pageshadow="2"
     inkscape:zoom="4.0600509"
     inkscape:cx="77.942385"
     inkscape:cy="88.791986"
     inkscape:document-units="px"
     inkscape:current-layer="layer1"
     showgrid="false"
     units="in"
     fit-margin-top="0"
     fit-margin-bottom="0"
     fit-margin-right="0"
     fit-margin-left="0"
     showguides="true"
     inkscape:guide-bbox="true"
     inkscape:window-width="1152"
     inkscape:window-height="923"
     inkscape:window-x="318"
     inkscape:window-y="35"
     inkscape:window-maximized="0"
     showborder="false" />
  <metadata
     id="metadata7312">
    <rdf:RDF>
      <cc:Work
         rdf:about="">
        <dc:format>image/svg+xml</dc:format>
        <dc:type
           rdf:resource="http://purl.org/dc/dcmitype/StillImage" />
        <dc:title></dc:title>
      </cc:Work>
    </rdf:RDF>
  </metadata>
  <g
     inkscape:label="Artwork"
     inkscape:groupmode="layer"
     id="layer1"
     transform="translate(-125.60887,297.92689)"
     style="display:inline">
    <path
       style="display:inline;opacity:1;fill:#990000;fill-opacity:1;fill-rule:nonzero;stroke:none;stroke-width:1;stroke-linecap:round;stroke-linejoin:round;stroke-miterlimit:4;stroke-dasharray:none;stroke-opacity:1"
       d="m 203.55028,-297.92689 -73.46094,42.41406 19.17969,11.07227 54.28125,-31.3418 54.03906,31.19922 19.17774,-11.07227 -73.2168,-42.27148 z"
       id="path7418"
       inkscape:connector-curvature="0" />
    <path
       style="display:inline;opacity:1;fill:#006699;fill-opacity:1;fill-rule:nonzero;stroke:none;stroke-width:1;stroke-linecap:round;stroke-linejoin:round;stroke-miterlimit:4;stroke-dasharray:none;stroke-opacity:1"
       d="m 281.49364,-248.15541 -19.17969,11.07227 0,63.08203 -54.57812,31.51172 0,22.14648 73.75781,-42.58398 0,-85.22852 z"
       id="path7414"
       inkscape:connector-curvature="0" />
    <path
       style="display:inline;opacity:1;fill:#006699;fill-opacity:1;fill-rule:nonzero;stroke:none;stroke-width:1;stroke-linecap:round;stroke-linejoin:round;stroke-miterlimit:4;stroke-dasharray:none;stroke-opacity:1"
       d="m 125.60887,-247.87221 0,84.94532 73.26758,42.30078 0,-22.14649 -54.08789,-31.22851 0,-62.79688 -19.17969,-11.07422 z"
       id="path7412"
       inkscape:connector-curvature="0" />
    <path
       d="m 175.14794,-216.27064 0,4.96875 -20.08399,0 c 0,0 -0.57305,8.57928 5.16406,12.64258 6.29553,4.46054 14.91993,6.32226 14.91993,6.32226 l 0,3.16211 11.23242,0 c 0.73157,0.56946 1.2832,1.41637 1.2832,2.68945 0,2.23661 -1.92052,3.08402 -3.37695,3.40625 l -9.14063,0 0,11.74219 63.6875,0 0,-11.74219 -10.61523,0 c 0,0 -1.43547,-11.967 10.61328,-18.74023 4.96393,-2.79232 13.77148,-4.06445 13.77148,-4.06445 l 0,-5.41797 -13.76953,0 0,-4.96875 -63.68554,0 z m -7.5586,-7.5586 -2.26562,4.18164 10.99218,0 -8.72656,-4.18164 z m -0.22265,-11.3125 -6.26368,0.17383 21.70118,14.79102 -15.4375,-14.96485 z m 13.64843,-7.39648 -10.06836,0.35156 6.93555,9.68555 -2.9082,0.17578 12.30468,12.67773 3.80274,0 -7.04688,-10.78515 3.04688,0.0684 -6.06641,-12.17383 z m 24.22071,-1.59961 -15.55274,2.49023 1.54492,11.39844 4.16797,10.95899 15.55469,-2.48828 -0.69922,-8.07813 30.20508,-3.69727 -2.6543,-9.81836 -29.33594,6.51172 -3.23046,-7.27734 z m -40.64258,-0.29297 -3.06446,1.76953 0.42774,0.43164 a 54.135104,54.264617 0 0 1 0.0176,-0.0234 l 4.60937,4.42382 4.36328,0 -5.03515,-6.60156 -1.31836,0 z m -12.13477,19.54102 0,0.10937 a 54.135104,54.264617 0 0 1 0.041,-0.10937 l -0.041,0 z"
       style="display:inline;opacity:1;fill:#339966;fill-opacity:1;fill-rule:nonzero;stroke:none;stroke-width:1;stroke-linecap:round;stroke-linejoin:round;stroke-miterlimit:4;stroke-dasharray:none;stroke-opacity:1"
       id="path8005"
       inkscape:connector-curvature="0" />
  </g>
</svg>
